<svg width="273" height="136" viewBox="0 0 273 136" fill="none" xmlns="http://www.w3.org/2000/svg">
<path d="M148.06 0.788426C147.513 1.33764 146.064 3.62124 144.833 5.81811L142.564 9.86499H135.974H129.384L127.607 6.80093C123.997 0.557176 122.411 -0.830324 121.673 1.56889C121.482 2.17593 121.181 5.55796 121.044 9.08452C120.689 17.2072 120.032 24.8673 119.485 26.9197C118.72 29.7525 117.025 33.7994 115.739 35.8517C113.251 39.783 107.974 44.3791 103.9 46.1134C98.3487 48.5126 90.5284 48.1658 84.7589 45.3041C78.169 42.0087 74.3409 36.9501 72.6183 29.3478C71.8253 25.8501 71.9894 19.4619 72.919 16.3689C73.6573 13.9119 76.6105 7.6103 78.4151 4.63296C80.1651 1.77124 80.1651 1.33764 78.4972 1.5978C76.8019 1.82905 58.7276 8.0728 53.6144 10.183C49.212 12.0041 39.8605 16.7736 35.3214 19.5197C28.3487 23.7689 20.5831 29.7814 15.6065 34.8111C9.97373 40.5056 5.21592 47.9345 2.39951 55.4212C-1.51064 65.8564 -0.608299 78.4884 4.86045 89.9931C6.77451 93.9822 8.98936 97.2775 13.4737 102.654C18.423 108.609 22.005 111.933 28.8956 116.876C36.6612 122.484 46.2042 127.889 48.0362 127.745C48.9112 127.658 48.9933 127.6 48.9386 126.791C48.8839 126.299 48.0909 123.958 47.1065 121.588C44.2901 114.563 43.88 113.118 43.7433 109.302C43.5792 105.227 43.9073 103.377 45.3292 100.37C46.587 97.7111 47.9269 96.2947 50.3331 95.1095C54.4894 93.0572 60.1495 93.4908 67.4776 96.4392C72.0987 98.3181 74.505 99.8791 79.4815 104.215C84.5401 108.638 84.8409 108.609 89.298 103.839C97.9112 94.6181 103.735 92.5947 110.79 96.3525C114.509 98.347 118.282 101.7 120.743 105.227C123.86 109.649 127.716 117.165 131.025 125.201C133.376 130.895 135.728 135.896 136.083 135.896C136.466 135.896 137.067 134.509 139.993 127.022C144.067 116.645 146.556 111.702 150.876 105.66C153.337 102.22 157.329 98.2025 159.9 96.6705C162.032 95.3986 165.478 94.2712 167.31 94.2712C169.771 94.2712 175.704 97.0751 178.767 99.7056C179.669 100.457 181.692 102.625 183.306 104.533C186.314 108.146 187.025 108.782 187.735 108.493C187.982 108.406 189.239 107.279 190.525 106.007C198.509 98.0291 209.829 92.8837 217.075 93.9533C220.739 94.5025 223.036 95.6587 225.032 98.0291C227.466 100.891 228.45 104.417 228.122 109.129C227.876 112.887 227.083 116.009 225.06 121.385C223.857 124.565 223.31 126.386 223.364 127.022C223.446 127.889 223.501 127.947 224.485 127.889C225.962 127.774 229.708 125.837 235.614 122.079C245.896 115.546 251.528 110.921 257.189 104.388C266.868 93.1728 271.107 84.183 272.009 72.8517C272.61 65.047 271.927 59.6994 269.575 53.6869C262.767 36.5166 241.739 19.3462 214.15 8.41968C208.79 6.30952 198.536 2.89858 195.282 2.14702C192.138 1.42436 192.028 1.82905 194.353 5.67358C197.825 11.4548 200.614 19.433 200.614 23.5376C200.614 25.6767 199.821 29.7236 198.946 32.1517C196.677 38.3955 191.017 44.1189 184.946 46.3158C179.122 48.4259 172.122 48.108 166.626 45.4775C158.013 41.3439 153.31 33.5103 151.97 21.0517C151.669 18.3056 151.368 14.5189 151.259 12.6111C151.013 7.52358 150.603 2.9853 150.247 1.56889C149.837 -0.252199 149.235 -0.454543 148.06 0.788426Z" fill="#1E1E1E"/>
</svg>
