<svg width="358" height="356" viewBox="0 0 358 356" fill="none" xmlns="http://www.w3.org/2000/svg">
<path d="M191.06 110.788C190.513 111.338 189.064 113.621 187.833 115.818L185.564 119.865H178.974H172.384L170.607 116.801C166.997 110.557 165.411 109.17 164.673 111.569C164.482 112.176 164.181 115.558 164.044 119.085C163.689 127.207 163.032 134.867 162.485 136.92C161.72 139.752 160.025 143.799 158.739 145.852C156.251 149.783 150.974 154.379 146.9 156.113C141.349 158.513 133.528 158.166 127.759 155.304C121.169 152.009 117.341 146.95 115.618 139.348C114.825 135.85 114.989 129.462 115.919 126.369C116.657 123.912 119.61 117.61 121.415 114.633C123.165 111.771 123.165 111.338 121.497 111.598C119.802 111.829 101.728 118.073 96.6144 120.183C92.212 122.004 82.8605 126.774 78.3214 129.52C71.3487 133.769 63.5831 139.781 58.6065 144.811C52.9737 150.506 48.2159 157.935 45.3995 165.421C41.4894 175.856 42.3917 188.488 47.8605 199.993C49.7745 203.982 51.9894 207.277 56.4737 212.654C61.423 218.609 65.005 221.933 71.8956 226.876C79.6612 232.484 89.2042 237.889 91.0362 237.745C91.9112 237.658 91.9933 237.6 91.9386 236.791C91.8839 236.299 91.0909 233.958 90.1065 231.588C87.2901 224.563 86.88 223.118 86.7433 219.302C86.5792 215.227 86.9073 213.377 88.3292 210.37C89.587 207.711 90.9269 206.295 93.3331 205.11C97.4894 203.057 103.15 203.491 110.478 206.439C115.099 208.318 117.505 209.879 122.482 214.215C127.54 218.638 127.841 218.609 132.298 213.839C140.911 204.618 146.735 202.595 153.79 206.352C157.509 208.347 161.282 211.7 163.743 215.227C166.86 219.649 170.716 227.165 174.025 235.201C176.376 240.895 178.728 245.896 179.083 245.896C179.466 245.896 180.067 244.509 182.993 237.022C187.067 226.645 189.556 221.702 193.876 215.66C196.337 212.22 200.329 208.202 202.9 206.67C205.032 205.399 208.478 204.271 210.31 204.271C212.771 204.271 218.704 207.075 221.767 209.706C222.669 210.457 224.692 212.625 226.306 214.533C229.314 218.146 230.025 218.782 230.735 218.493C230.982 218.406 232.239 217.279 233.525 216.007C241.509 208.029 252.829 202.884 260.075 203.953C263.739 204.502 266.036 205.659 268.032 208.029C270.466 210.891 271.45 214.417 271.122 219.129C270.876 222.887 270.083 226.009 268.06 231.385C266.857 234.565 266.31 236.386 266.364 237.022C266.446 237.889 266.501 237.947 267.485 237.889C268.962 237.774 272.708 235.837 278.614 232.079C288.896 225.546 294.528 220.921 300.189 214.388C309.868 203.173 314.107 194.183 315.009 182.852C315.61 175.047 314.927 169.699 312.575 163.687C305.767 146.517 284.739 129.346 257.15 118.42C251.79 116.31 241.536 112.899 238.282 112.147C235.138 111.424 235.028 111.829 237.353 115.674C240.825 121.455 243.614 129.433 243.614 133.538C243.614 135.677 242.821 139.724 241.946 142.152C239.677 148.395 234.017 154.119 227.946 156.316C222.122 158.426 215.122 158.108 209.626 155.477C201.013 151.344 196.31 143.51 194.97 131.052C194.669 128.306 194.368 124.519 194.259 122.611C194.013 117.524 193.603 112.985 193.247 111.569C192.837 109.748 192.235 109.545 191.06 110.788Z" fill="#1E1E1E"/>
</svg>
