<svg fill="#f6e673" xmlns="http://www.w3.org/2000/svg"  viewBox="0 0 26 26" width="104px" height="104px"><path d="M 0 9 C 0 9 5.300781 10.59375 4 14.09375 C 4 14.09375 11.800781 12.914063 13 17.8125 C 14.199219 12.914063 22 14.09375 22 14.09375 C 20.699219 10.59375 26 9 26 9 L 17.1875 9 C 17.1875 9 17 10.707031 16 10.90625 C 15.101563 11.105469 14.007813 11.507813 13.90625 10.90625 C 13.90625 10.207031 13.6875 9.40625 13.6875 9.40625 L 13.5 10.3125 C 13.5 10.3125 13.398438 10.1875 13 10.1875 C 12.699219 10.1875 12.507813 10.3125 12.40625 10.3125 L 12.1875 9.40625 C 12.1875 9.40625 12.101563 10.304688 12 10.90625 C 12 11.507813 10.804688 11.105469 9.90625 10.90625 C 9.007813 10.707031 8.8125 9 8.8125 9 Z"/></svg>