<svg width="397" height="189" viewBox="0 0 397 189" fill="none" xmlns="http://www.w3.org/2000/svg">
<mask id="mask0_177_167" style="mask-type:alpha" maskUnits="userSpaceOnUse" x="0" y="0" width="397" height="189">
<rect width="397" height="189" fill="#D9AC1F"/>
</mask>
<g mask="url(#mask0_177_167)">
<path d="M-15.5558 202.671L34.0198 -16.9848L44.3703 -15.6606L-5.20524 203.995L-15.5558 202.671Z" fill="#D9AC1F"/>
<path d="M-33.6168 203.734L15.9587 -15.9221L26.3093 -14.5978L-23.2663 205.058L-33.6168 203.734Z" fill="#D9AC1F"/>
<path d="M3.20167 203.734L52.7772 -15.9221L63.1278 -14.5978L13.5522 205.058L3.20167 203.734Z" fill="#D9AC1F"/>
<path d="M21.9591 204.797L71.5347 -14.8593L81.8852 -13.5351L32.3097 206.121L21.9591 204.797Z" fill="#D9AC1F"/>
<path d="M40.7167 205.859L90.2922 -13.7966L100.643 -12.4723L51.0672 207.184L40.7167 205.859Z" fill="#D9AC1F"/>
<path d="M59.4741 206.922L109.05 -12.7338L119.4 -11.4096L69.8247 208.246L59.4741 206.922Z" fill="#D9AC1F"/>
<path d="M78.2317 207.985L127.807 -11.6711L138.158 -10.3468L88.5822 209.309L78.2317 207.985Z" fill="#D9AC1F"/>
<path d="M96.9891 209.048L146.565 -10.6083L156.915 -9.28409L107.34 210.372L96.9891 209.048Z" fill="#D9AC1F"/>
<path d="M115.747 210.11L165.322 -9.54559L175.673 -8.22134L126.097 211.435L115.747 210.11Z" fill="#D9AC1F"/>
<path d="M134.504 211.173L184.08 -8.48284L194.43 -7.1586L144.855 212.497L134.504 211.173Z" fill="#D9AC1F"/>
<path d="M153.262 212.236L202.837 -7.4201L213.188 -6.09586L163.612 213.56L153.262 212.236Z" fill="#D9AC1F"/>
<path d="M172.019 213.299L221.595 -6.35735L231.945 -5.03311L182.37 214.623L172.019 213.299Z" fill="#D9AC1F"/>
<path d="M190.777 214.361L240.352 -5.29461L250.703 -3.97037L201.127 215.686L190.777 214.361Z" fill="#D9AC1F"/>
<path d="M209.534 215.424L259.11 -4.23186L269.46 -2.90762L219.885 216.748L209.534 215.424Z" fill="#D9AC1F"/>
<path d="M228.292 216.487L277.867 -3.16912L288.218 -1.84488L238.642 217.811L228.292 216.487Z" fill="#D9AC1F"/>
<path d="M247.049 217.549L296.625 -2.1065L306.975 -0.782257L257.4 218.874L247.049 217.549Z" fill="#D9AC1F"/>
<path d="M265.807 218.612L315.382 -1.04375L325.733 0.280487L276.157 219.936L265.807 218.612Z" fill="#D9AC1F"/>
<path d="M284.564 219.675L334.14 0.0189895L344.49 1.34323L294.915 220.999L284.564 219.675Z" fill="#D9AC1F"/>
<path d="M303.322 220.738L352.897 1.08173L363.248 2.40598L313.672 222.062L303.322 220.738Z" fill="#D9AC1F"/>
<path d="M322.079 221.8L371.655 2.14448L382.005 3.46872L332.43 223.125L322.079 221.8Z" fill="#D9AC1F"/>
<path d="M340.837 222.863L390.412 3.20722L400.763 4.53146L351.187 224.187L340.837 222.863Z" fill="#D9AC1F"/>
<path d="M359.594 223.926L409.17 4.26997L419.52 5.59421L369.945 225.25L359.594 223.926Z" fill="#D9AC1F"/>
</g>
</svg>
