<svg fill="#000000" xmlns="http://www.w3.org/2000/svg"  viewBox="0 0 64 64" width="96px" height="96px"><path d="M61.43,20.16c-2.41,1.45-5.11,3.63-6.25,6.54c-0.94,2.42-1.02,5.94-0.96,7.53c0.03,0.67-0.49,1.2-1.12,1.2	c-0.05,0-0.11,0-0.16-0.01c-1.37-0.19-3.07-0.59-5.06-0.59c-2.07,0-4.45,0.44-7.1,2.01c-4.25,2.55-6.62,7.43-7.8,9.57	C32.77,46.81,32.38,47,32,47s-0.77-0.19-0.98-0.59c-1.18-2.14-3.55-7.02-7.8-9.57c-2.65-1.57-5.03-2.01-7.1-2.01	c-1.99,0-3.69,0.4-5.06,0.59c-0.05,0.01-0.11,0.01-0.16,0.01c-0.63,0-1.15-0.53-1.12-1.2c0.06-1.59-0.02-5.11-0.96-7.53	c-1.14-2.91-3.84-5.09-6.25-6.54c-1-0.6-0.6-2.16,0.56-2.16h17.21c0.51,0,0.95,0.35,1.09,0.85c0.39,1.46,1.19,3.63,1.58,4.41	c0.14,0.28,0.38,0.49,0.68,0.57c0.52,0.14,2.92,0.46,2.98,0.46c0.54,0,1.02-0.41,1.12-0.97l0.71-3.37c0.09-0.54,0.29-0.8,0.57-0.8	c0.2,0,0.45,0.14,0.72,0.43l0.73,0.74h2.96l0.73-0.74c0.27-0.29,0.52-0.43,0.72-0.43c0.28,0,0.48,0.26,0.57,0.8l0.71,3.37	c0.1,0.56,0.58,0.97,1.12,0.97c0.06,0,2.46-0.32,2.98-0.46c0.3-0.08,0.54-0.29,0.68-0.57c0.39-0.78,1.19-2.95,1.58-4.41	c0.14-0.5,0.58-0.85,1.09-0.85h17.21C62.03,18,62.43,19.56,61.43,20.16z"/></svg>